<?xml version="1.0" standalone="no"?>
<!DOCTYPE svg PUBLIC "-//W3C//DTD SVG 20010904//EN"
 "http://www.w3.org/TR/2001/REC-SVG-20010904/DTD/svg10.dtd">
<svg version="1.0" xmlns="http://www.w3.org/2000/svg"
 width="650.000000pt" height="230.000000pt" viewBox="0 0 650.000000 230.000000"
 preserveAspectRatio="xMidYMid meet">

<g transform="translate(0.000000,230.000000) scale(0.100000,-0.100000)"
fill="#7B7886" stroke="none">
<path d="M1070 2284 c-14 -2 -59 -9 -100 -15 -162 -24 -347 -103 -490 -210
-223 -166 -372 -401 -440 -693 -83 -359 30 -741 300 -1016 210 -214 457 -327
758 -346 458 -29 912 244 1106 667 73 158 100 293 100 484 -1 205 -38 363
-126 525 -171 319 -440 517 -798 586 -77 15 -265 26 -310 18z m365 -168 c407
-121 682 -455 725 -882 49 -483 -260 -925 -740 -1056 -73 -20 -108 -23 -250
-23 -192 0 -252 12 -397 80 -379 178 -603 521 -603 924 1 422 265 798 660 935
136 48 193 56 360 52 132 -3 168 -7 245 -30z"/>
<path d="M1035 1827 c-11 -7 -51 -26 -90 -42 -154 -64 -377 -250 -500 -415
-88 -119 -164 -315 -153 -392 3 -20 7 -16 27 24 64 126 244 324 316 348 43 14
81 7 94 -19 6 -11 11 -141 11 -317 2 -336 4 -329 -74 -322 l-39 4 59 -56 c94
-87 229 -148 397 -180 l69 -13 88 88 89 88 77 -66 78 -65 45 31 c61 41 183
159 236 227 39 51 125 185 125 195 0 2 -20 -18 -45 -44 -51 -55 -149 -111
-192 -111 -18 0 -38 9 -49 21 -18 20 -19 43 -22 351 l-3 331 37 56 c20 31 62
88 93 126 32 39 60 75 64 81 10 17 -161 -47 -229 -86 -33 -18 -91 -59 -130
-91 -41 -33 -75 -54 -80 -49 -5 5 -33 13 -62 18 l-53 9 19 -21 c56 -60 57 -68
60 -401 l2 -310 -39 -28 c-43 -30 -111 -57 -143 -57 -11 0 -38 17 -59 39 l-39
39 0 353 c0 267 -3 350 -12 341 -29 -29 -78 39 -78 110 1 59 30 119 85 173 49
47 53 54 20 32z"/>
<path d="M2537 1533 c-5 -8 -32 -13 -73 -13 l-64 0 0 -177 c0 -196 8 -242 47
-273 45 -35 100 -44 273 -45 213 0 264 16 296 92 19 44 20 433 2 415 -7 -7
-40 -12 -76 -12 l-64 0 3 -177 3 -176 -28 -21 c-24 -18 -42 -21 -136 -21 -106
0 -110 1 -137 28 l-28 27 -5 183 c-3 100 -9 176 -13 170z"/>
<path d="M3360 1532 c0 -9 -33 -12 -110 -12 l-110 0 0 -229 c0 -126 -3 -236
-6 -245 -5 -14 5 -16 70 -16 l76 0 2 191 3 191 148 -191 148 -191 115 0 114 0
0 257 c0 200 -3 254 -12 245 -7 -7 -40 -12 -76 -12 l-64 0 4 -185 c2 -102 0
-185 -4 -185 -5 0 -8 4 -8 9 0 6 -264 358 -286 380 -2 2 -4 -1 -4 -7z"/>
<path d="M5155 1530 c-4 -6 -105 -10 -271 -10 l-264 0 0 -245 0 -245 280 0
280 0 0 53 0 52 -205 -3 -205 -3 0 50 0 51 188 2 187 3 3 53 c2 31 -1 52 -7
52 -6 0 -11 -4 -11 -10 0 -6 -67 -10 -180 -10 l-180 0 0 55 0 55 200 0 200 0
0 55 c0 55 -3 64 -15 45z"/>
<path d="M5660 1532 c0 -8 -25 -12 -83 -12 l-82 0 -120 -222 c-66 -123 -130
-233 -142 -245 l-22 -23 82 0 83 0 22 45 22 45 160 0 160 0 22 -45 22 -45 82
0 82 0 -133 246 c-130 240 -155 281 -155 256z m-26 -208 c31 -58 56 -107 56
-110 0 -2 -47 -4 -105 -4 -86 0 -105 3 -105 15 0 12 91 205 96 205 1 0 27 -47
58 -106z"/>
<path d="M6140 1530 c0 -6 -28 -10 -65 -10 l-65 0 0 -229 c0 -126 -3 -236 -6
-245 -6 -14 20 -16 245 -16 l251 0 0 62 c0 48 -3 59 -12 50 -8 -8 -60 -12
-170 -12 l-158 0 0 205 c0 130 -4 205 -10 205 -5 0 -10 -4 -10 -10z"/>
<path d="M3915 1275 l0 -245 73 0 72 0 0 71 0 71 134 -4 c161 -4 176 -11 176
-90 l0 -48 75 0 75 0 0 65 c0 70 -16 119 -37 111 -19 -8 -43 4 -43 20 0 8 6
14 13 14 8 0 24 11 37 25 43 45 40 186 -4 230 -22 22 -26 23 -297 24 l-274 2
0 -246z m436 138 c6 -6 15 -33 20 -59 8 -42 7 -51 -10 -68 -17 -17 -38 -20
-151 -24 -106 -4 -134 -2 -141 9 -11 17 -12 143 -1 153 11 12 270 2 283 -11z"/>
<path d="M3663 849 c-7 -7 -61 -9 -157 -7 l-146 3 0 -143 0 -142 163 2 162 3
3 33 c2 18 -1 32 -7 32 -6 0 -11 -4 -11 -10 0 -6 -43 -10 -110 -10 l-110 0 0
35 0 35 110 0 110 0 0 28 0 27 -110 -3 -110 -4 0 36 0 36 115 0 115 0 0 30 c0
33 -1 35 -17 19z"/>
<path d="M3860 850 c0 -7 -20 -10 -55 -9 -30 1 -57 0 -59 -2 -3 -3 -6 -65 -7
-139 l-1 -135 41 -3 40 -3 3 113 3 112 85 -109 86 -110 67 -3 67 -3 0 151 c0
93 -4 150 -10 150 -5 0 -10 -5 -10 -11 0 -5 -8 -9 -17 -8 -53 5 -53 5 -53 -90
0 -50 5 -93 10 -96 12 -7 4 -25 -11 -25 -5 0 -9 5 -9 11 0 11 -146 205 -161
215 -5 3 -9 0 -9 -6z"/>
<path d="M4685 850 c-4 -6 -14 -10 -23 -9 -42 4 -42 4 -42 -142 l0 -140 43 3
42 3 3 148 c2 136 -3 169 -23 137z"/>
<path d="M4890 849 c0 -6 -19 -10 -47 -9 -27 1 -54 1 -60 1 -10 -1 -13 -36
-13 -141 l0 -140 40 0 40 0 0 110 c0 61 3 110 8 110 4 0 13 -10 21 -22 7 -12
45 -61 83 -110 l70 -88 64 0 64 0 0 151 c0 130 -2 150 -14 140 -8 -7 -20 -11
-28 -10 -26 3 -49 -1 -44 -9 11 -18 9 -196 -3 -200 -6 -2 -11 2 -11 9 0 15
-151 218 -162 219 -5 0 -8 -5 -8 -11z"/>
<path d="M5525 850 c-4 -7 -56 -11 -138 -10 -73 1 -140 1 -150 1 -16 -1 -17
-12 -15 -138 l3 -138 163 -3 162 -2 0 36 c0 30 -2 34 -14 25 -9 -8 -50 -11
-117 -9 l-104 3 -3 33 -3 32 110 0 111 0 0 28 0 27 -110 -3 -110 -3 0 35 0 36
115 0 115 0 0 30 c0 31 -4 37 -15 20z"/>
<path d="M4265 842 c-50 -12 -75 -62 -75 -152 0 -69 2 -79 25 -100 22 -21 38
-25 120 -28 188 -8 225 10 225 109 0 40 -4 58 -11 54 -5 -4 -50 -7 -100 -7
-80 0 -89 -1 -89 -18 0 -16 9 -19 56 -22 42 -2 60 -8 68 -21 18 -30 -17 -47
-98 -47 -39 0 -76 4 -82 8 -21 14 -34 51 -34 101 0 64 21 81 100 81 69 0 100
-8 100 -26 0 -10 13 -14 45 -14 40 0 45 2 45 23 0 12 -6 31 -14 42 -12 18 -27
20 -132 22 -66 1 -132 -2 -149 -5z"/>
</g>
</svg>
